<svg xmlns="http://www.w3.org/2000/svg" viewBox="0 0 512 512" width="512" height="512">
  <defs>
    <linearGradient id="g" x1="56" y1="456" x2="440" y2="56" gradientUnits="userSpaceOnUse">
      <stop offset="0%"   stop-color="#0A10BE"/>
      <stop offset="45%"  stop-color="#0048D8"/>
      <stop offset="100%" stop-color="#00B2F0"/>
    </linearGradient>
  </defs>
  <path fill="url(#g)" fill-rule="evenodd" d="M222.51 244.06Q241.45 244.06 254.76 239.25Q268.08 234.45 276.59 225.94Q285.1 217.43 288.94 206.03Q292.79 194.64 292.79 181.46Q292.79 155.11 275.63 140.28Q258.47 125.46 222.51 125.46H185.17V244.06ZM419.62 456.0H335.62Q312.28 456.0 302.12 438.43L235.68 322.3Q231.02 314.89 225.25 311.46Q219.49 308.02 208.78 308.02H185.17V456.0H92.38V56.0H222.51Q265.88 56.0 296.49 64.92Q327.11 73.84 346.46 89.77Q365.81 105.69 374.6 127.38Q383.39 149.07 383.39 174.6Q383.39 194.09 378.17 211.39Q372.95 228.68 362.79 243.37Q352.64 258.06 337.67 269.59Q322.71 281.12 303.22 288.53Q312.28 293.2 320.24 300.2Q328.2 307.2 334.52 316.81Z"/>
</svg>
