<svg xmlns="http://www.w3.org/2000/svg" viewBox="0 0 512 512" width="512" height="512">
  <defs>
    <linearGradient id="g" x1="48" y1="492" x2="452" y2="60" gradientUnits="userSpaceOnUse">
      <stop offset="0%"   stop-color="#0616C0"/>
      <stop offset="48%"  stop-color="#0050DC"/>
      <stop offset="100%" stop-color="#00AEEE"/>
    </linearGradient>
  </defs>
  <path fill="url(#g)" d="M286.6,276.0 C287.7,276.1 296.2,276.9 298.3,277.2 C300.5,277.4 307.8,278.7 309.9,279.1 C312.0,279.6 319.2,281.3 321.3,281.9 C323.4,282.5 330.3,284.7 332.4,285.4 C334.4,286.1 341.2,288.8 343.2,289.7 C345.2,290.5 351.9,293.6 353.8,294.6 C355.8,295.5 362.2,299.0 364.1,300.1 C366.0,301.2 372.3,305.0 374.1,306.2 C375.9,307.3 382.0,311.5 383.8,312.8 C385.6,314.1 391.4,318.5 393.1,319.9 C394.8,321.3 400.5,326.1 402.2,327.5 C403.8,329.0 409.3,334.0 410.8,335.5 C412.4,337.1 417.7,342.4 419.2,344.0 C420.7,345.6 425.7,351.1 427.1,352.8 C428.6,354.5 433.4,360.2 434.7,362.0 C436.1,363.7 440.6,369.7 441.9,371.5 C443.2,373.3 447.5,379.4 448.7,381.3 C450.0,383.1 454.0,389.4 455.1,391.3 C456.3,393.3 460.0,399.7 461.1,401.7 C462.1,403.6 465.6,410.2 466.6,412.2 C467.5,414.2 470.7,420.9 471.6,422.9 C472.5,425.0 475.7,432.8 476.1,433.9 L502.2,423.7 C501.7,422.6 498.2,413.9 497.2,411.6 C496.2,409.4 492.7,402.0 491.7,399.8 C490.6,397.6 486.8,390.3 485.6,388.2 C484.4,386.1 480.3,379.0 479.1,376.9 C477.8,374.8 473.4,367.8 472.1,365.8 C470.7,363.8 466.0,357.0 464.6,355.0 C463.2,353.1 458.2,346.5 456.7,344.6 C455.2,342.7 449.9,336.4 448.3,334.5 C446.7,332.7 441.2,326.6 439.5,324.8 C437.9,323.0 432.1,317.1 430.3,315.4 C428.6,313.7 422.5,308.1 420.7,306.5 C418.9,304.9 412.6,299.6 410.6,298.1 C408.7,296.5 402.2,291.5 400.2,290.1 C398.2,288.7 391.4,284.0 389.3,282.6 C387.2,281.3 380.2,277.0 378.0,275.8 C375.9,274.5 368.5,270.6 366.3,269.5 C364.1,268.4 356.5,264.9 354.2,263.9 C351.9,262.9 344.1,259.9 341.7,259.0 C339.3,258.2 331.3,255.6 328.8,254.9 C326.4,254.3 318.1,252.2 315.6,251.7 C313.1,251.2 304.6,249.7 302.0,249.4 C299.4,249.1 289.4,248.2 288.1,248.1 Z"/>
  <path fill="url(#g)" d="M284.2,318.0 C285.0,318.1 291.2,318.6 292.8,318.8 C294.4,319.0 299.8,319.9 301.4,320.2 C303.0,320.6 308.3,321.9 309.9,322.3 C311.5,322.8 316.8,324.5 318.4,325.0 C319.9,325.6 325.2,327.6 326.8,328.3 C328.3,329.0 333.5,331.4 335.1,332.1 C336.6,332.9 341.7,335.6 343.2,336.5 C344.7,337.4 349.8,340.5 351.3,341.4 C352.8,342.4 357.7,345.8 359.2,346.8 C360.6,347.9 365.4,351.5 366.9,352.7 C368.3,353.8 373.0,357.8 374.4,359.0 C375.7,360.2 380.3,364.4 381.6,365.7 C383.0,367.0 387.4,371.5 388.6,372.8 C389.9,374.2 394.1,378.9 395.4,380.3 C396.6,381.7 400.6,386.6 401.8,388.1 C403.0,389.6 406.8,394.6 407.9,396.2 C409.1,397.7 412.7,402.9 413.7,404.5 C414.8,406.1 418.2,411.5 419.2,413.1 C420.2,414.7 423.3,420.2 424.2,421.9 C425.1,423.5 428.1,429.1 428.9,430.8 C429.7,432.5 432.4,438.2 433.1,439.9 C433.9,441.6 436.6,448.2 437.0,449.1 L463.0,438.9 C462.6,438.0 459.6,430.5 458.8,428.6 C457.9,426.7 454.9,420.3 454.0,418.4 C453.1,416.5 449.8,410.2 448.8,408.4 C447.8,406.5 444.2,400.4 443.1,398.6 C442.0,396.8 438.2,390.8 437.1,389.0 C435.9,387.3 431.9,381.4 430.6,379.7 C429.4,378.0 425.1,372.3 423.8,370.7 C422.5,369.0 417.9,363.6 416.6,362.0 C415.2,360.4 410.4,355.1 409.0,353.6 C407.6,352.1 402.6,347.1 401.1,345.6 C399.6,344.1 394.5,339.4 392.9,338.0 C391.3,336.6 386.0,332.1 384.4,330.8 C382.8,329.5 377.2,325.3 375.6,324.1 C373.9,322.9 368.2,319.0 366.5,317.9 C364.8,316.8 358.9,313.2 357.1,312.2 C355.4,311.2 349.4,308.0 347.6,307.1 C345.7,306.2 339.6,303.3 337.7,302.5 C335.9,301.7 329.6,299.3 327.7,298.6 C325.8,298.0 319.4,295.9 317.5,295.4 C315.5,294.8 309.0,293.2 307.1,292.8 C305.1,292.4 298.5,291.3 296.5,291.0 C294.5,290.8 286.8,290.1 285.8,290.0 Z"/>
  <path fill="url(#g)" d="M281.9,359.9 C282.4,360.0 286.3,360.3 287.3,360.4 C288.3,360.6 291.8,361.2 292.8,361.4 C293.9,361.6 297.5,362.5 298.5,362.8 C299.6,363.1 303.3,364.2 304.3,364.6 C305.4,365.0 309.2,366.4 310.3,366.9 C311.4,367.4 315.2,369.1 316.3,369.7 C317.4,370.3 321.2,372.3 322.4,373.0 C323.5,373.6 327.3,375.9 328.5,376.7 C329.6,377.4 333.4,380.0 334.6,380.9 C335.7,381.7 339.5,384.6 340.6,385.5 C341.7,386.4 345.5,389.5 346.6,390.5 C347.7,391.4 351.3,394.8 352.4,395.9 C353.5,396.9 357.0,400.5 358.1,401.7 C359.1,402.8 362.6,406.6 363.6,407.8 C364.6,408.9 367.9,412.9 368.9,414.2 C369.9,415.4 373.0,419.6 374.0,420.8 C374.9,422.1 377.9,426.4 378.7,427.7 C379.6,429.0 382.4,433.5 383.2,434.8 C384.0,436.1 386.7,440.7 387.4,442.0 C388.2,443.4 390.6,448.0 391.2,449.4 C391.9,450.8 394.1,455.4 394.7,456.8 C395.3,458.2 397.5,463.6 397.8,464.3 L423.9,454.1 C423.6,453.3 421.0,447.1 420.3,445.5 C419.6,443.9 417.1,438.6 416.3,437.0 C415.6,435.4 412.8,430.1 412.0,428.6 C411.1,427.0 408.1,421.8 407.2,420.3 C406.3,418.8 403.1,413.7 402.1,412.2 C401.1,410.7 397.7,405.8 396.6,404.4 C395.6,402.9 392.0,398.2 390.8,396.8 C389.7,395.4 385.9,390.8 384.8,389.4 C383.6,388.1 379.7,383.7 378.5,382.4 C377.3,381.2 373.1,377.0 371.9,375.8 C370.6,374.6 366.4,370.6 365.1,369.5 C363.8,368.4 359.4,364.7 358.1,363.6 C356.8,362.6 352.3,359.1 351.0,358.2 C349.6,357.2 345.0,354.1 343.7,353.2 C342.3,352.3 337.7,349.5 336.3,348.7 C334.9,347.9 330.2,345.4 328.8,344.7 C327.4,344.0 322.7,341.8 321.3,341.2 C319.9,340.6 315.1,338.7 313.7,338.2 C312.3,337.7 307.5,336.2 306.1,335.8 C304.7,335.4 299.9,334.2 298.5,334.0 C297.1,333.7 292.4,332.9 291.0,332.7 C289.6,332.5 284.1,332.0 283.4,332.0 Z"/>
  <path fill="url(#g)" d="M116.0,354.0 C116.0,354.4 116.1,357.3 116.1,358.1 C116.2,358.8 116.5,361.3 116.6,362.0 C116.7,362.7 117.1,365.2 117.3,365.9 C117.5,366.6 118.1,368.9 118.3,369.6 C118.5,370.3 119.3,372.6 119.5,373.2 C119.8,373.9 120.7,376.1 121.0,376.8 C121.3,377.4 122.4,379.5 122.7,380.1 C123.1,380.8 124.3,382.8 124.7,383.4 C125.1,384.0 126.4,385.9 126.9,386.5 C127.3,387.0 128.8,388.9 129.2,389.4 C129.7,390.0 131.3,391.7 131.8,392.2 C132.3,392.7 134.0,394.3 134.6,394.8 C135.1,395.2 137.0,396.7 137.5,397.1 C138.1,397.6 140.0,398.9 140.6,399.3 C141.2,399.7 143.2,400.9 143.9,401.3 C144.5,401.6 146.6,402.7 147.2,403.0 C147.9,403.3 150.1,404.2 150.8,404.5 C151.4,404.7 153.7,405.5 154.4,405.7 C155.1,405.9 157.4,406.5 158.1,406.7 C158.8,406.9 161.3,407.3 162.0,407.4 C162.7,407.5 165.2,407.8 165.9,407.9 C166.7,407.9 169.2,408.0 170.0,408.0 C170.8,408.0 173.3,407.9 174.1,407.9 C174.8,407.8 177.3,407.5 178.0,407.4 C178.7,407.3 181.2,406.9 181.9,406.7 C182.6,406.5 184.9,405.9 185.6,405.7 C186.3,405.5 188.6,404.7 189.2,404.5 C189.9,404.2 192.1,403.3 192.8,403.0 C193.4,402.7 195.5,401.6 196.1,401.3 C196.8,400.9 198.8,399.7 199.4,399.3 C200.0,398.9 201.9,397.6 202.5,397.1 C203.0,396.7 204.9,395.2 205.4,394.8 C206.0,394.3 207.7,392.7 208.2,392.2 C208.7,391.7 210.3,390.0 210.8,389.4 C211.2,388.9 212.7,387.0 213.1,386.5 C213.6,385.9 214.9,384.0 215.3,383.4 C215.7,382.8 216.9,380.8 217.3,380.1 C217.6,379.5 218.7,377.4 219.0,376.8 C219.3,376.1 220.2,373.9 220.5,373.2 C220.7,372.6 221.5,370.3 221.7,369.6 C221.9,368.9 222.5,366.6 222.7,365.9 C222.9,365.2 223.3,362.7 223.4,362.0 C223.5,361.3 223.8,358.8 223.9,358.1 C223.9,357.3 224.0,355.4 224.0,354.0 C224.0,352.6 224.0,344.7 224.0,342.6 C224.1,340.5 224.1,333.4 224.1,331.2 C224.2,329.1 224.3,322.0 224.3,319.8 C224.4,317.7 224.5,310.6 224.6,308.4 C224.6,306.3 224.8,299.1 224.9,297.0 C224.9,294.9 225.1,287.7 225.2,285.6 C225.3,283.4 225.5,276.3 225.6,274.1 C225.7,272.0 226.0,264.8 226.1,262.7 C226.2,260.6 226.5,253.4 226.6,251.2 C226.7,249.1 227.0,241.9 227.1,239.8 C227.2,237.6 227.6,230.5 227.7,228.3 C227.8,226.2 228.1,219.0 228.3,216.9 C228.4,214.7 228.8,207.5 228.9,205.4 C229.0,203.3 229.4,196.1 229.5,193.9 C229.7,191.8 230.1,184.6 230.2,182.5 C230.3,180.3 230.8,173.2 230.9,171.0 C231.0,168.9 231.4,161.7 231.6,159.6 C231.7,157.4 232.1,150.2 232.3,148.1 C232.4,146.0 232.8,138.8 233.0,136.6 C233.1,134.5 233.5,127.3 233.7,125.2 C233.8,123.1 234.2,115.9 234.4,113.8 C234.5,111.6 234.9,104.1 235.0,102.3 C235.2,100.5 235.6,96.0 235.9,94.6 C236.1,93.2 237.1,88.3 237.5,86.9 C237.9,85.4 239.5,80.8 240.0,79.4 C240.5,78.1 242.6,73.6 243.3,72.4 C244.0,71.1 246.5,67.0 247.3,65.8 C248.1,64.6 251.0,60.9 251.9,59.8 C252.8,58.8 256.1,55.4 257.1,54.4 C258.1,53.5 261.6,50.5 262.6,49.6 C263.7,48.8 267.4,46.2 268.5,45.4 C269.7,44.7 273.5,42.4 274.7,41.7 C275.9,41.1 279.9,39.1 281.1,38.5 C282.3,38.0 286.4,36.3 287.7,35.8 C288.9,35.3 293.2,33.8 294.4,33.4 C295.7,33.0 300.0,31.8 301.4,31.4 C302.7,31.1 307.1,30.1 308.4,29.8 C309.7,29.5 314.2,28.7 315.6,28.5 C316.9,28.2 321.5,27.6 322.9,27.4 C324.3,27.2 328.9,26.8 330.3,26.6 C331.7,26.5 336.5,26.2 337.9,26.1 C339.3,26.1 344.1,25.9 345.5,25.9 C347.0,25.8 351.8,25.8 353.3,25.8 C354.7,25.8 359.3,25.9 361.0,26.0 C362.7,26.1 369.3,26.6 371.2,26.9 C373.1,27.1 379.3,28.3 381.1,28.7 C382.9,29.1 388.9,30.9 390.7,31.5 C392.4,32.1 398.2,34.4 399.8,35.1 C401.5,35.9 406.9,38.7 408.5,39.7 C410.1,40.6 415.2,43.9 416.6,44.9 C418.1,46.0 422.8,49.7 424.2,50.9 C425.6,52.1 430.0,56.2 431.2,57.5 C432.5,58.8 436.5,63.3 437.7,64.7 C438.8,66.0 442.5,70.8 443.5,72.3 C444.6,73.8 447.9,78.8 448.9,80.4 C449.8,81.9 452.8,87.3 453.7,88.9 C454.6,90.5 457.3,96.0 458.0,97.7 C458.8,99.4 461.2,105.2 461.8,106.9 C462.5,108.7 464.6,114.6 465.2,116.4 C465.8,118.2 467.6,124.4 468.1,126.2 C468.6,128.1 470.1,134.4 470.5,136.3 C470.9,138.2 472.2,144.7 472.5,146.6 C472.8,148.6 473.8,155.2 474.0,157.2 C474.3,159.2 475.0,165.9 475.1,167.9 C475.3,170.0 475.7,176.8 475.8,178.9 C475.9,180.9 476.0,187.9 476.0,190.0 C476.0,192.1 475.8,199.2 475.7,201.2 C475.6,203.3 475.0,210.2 474.7,212.2 C474.5,214.2 473.5,220.9 473.2,222.8 C472.8,224.8 471.4,231.3 470.9,233.2 C470.5,235.1 468.7,241.4 468.1,243.2 C467.5,245.0 465.3,251.1 464.6,252.8 C463.9,254.6 461.4,260.4 460.5,262.1 C459.7,263.8 456.8,269.4 455.8,271.0 C454.9,272.6 451.6,277.9 450.6,279.4 C449.5,280.9 445.8,285.9 444.7,287.3 C443.5,288.8 439.5,293.5 438.3,294.8 C437.0,296.1 432.7,300.5 431.3,301.7 C430.0,303.0 425.4,307.0 423.9,308.1 C422.5,309.3 417.6,312.9 416.1,313.9 C414.5,315.0 409.4,318.3 407.8,319.2 C406.2,320.1 400.7,323.1 399.1,323.9 C397.4,324.7 391.8,327.3 390.1,328.0 C388.3,328.7 382.5,330.9 380.7,331.5 C378.9,332.1 372.9,334.0 371.1,334.5 C369.2,335.0 363.0,336.5 361.1,336.8 C359.2,337.2 352.8,338.4 350.9,338.6 C349.1,338.9 342.4,339.7 340.9,339.8 C339.5,340.0 336.2,340.3 335.2,340.4 C334.1,340.5 330.5,340.7 329.4,340.8 C328.4,340.9 324.8,341.0 323.8,341.1 C322.7,341.1 319.2,341.2 318.2,341.2 C317.2,341.2 313.7,341.2 312.7,341.2 C311.7,341.2 308.2,341.1 307.2,341.1 C306.2,341.1 302.9,340.9 301.9,340.9 C300.9,340.8 297.6,340.6 296.6,340.5 C295.6,340.4 292.3,340.1 291.4,340.0 C290.4,339.9 287.2,339.5 286.2,339.4 C285.3,339.3 282.1,338.8 281.2,338.6 C280.3,338.5 277.2,338.0 276.3,337.8 C275.3,337.6 272.3,337.0 271.4,336.8 C270.5,336.6 267.5,335.9 266.6,335.7 C265.7,335.5 262.8,334.7 262.0,334.5 C261.1,334.2 258.2,333.4 257.4,333.1 C256.5,332.9 253.7,331.9 252.9,331.7 C252.1,331.4 249.3,330.4 248.5,330.1 C247.7,329.7 245.1,328.7 244.3,328.3 C243.5,328.0 240.9,326.8 240.1,326.5 C239.3,326.1 236.8,324.8 236.0,324.5 C235.3,324.1 232.5,322.5 232.1,322.3 L218.2,346.6 C218.7,346.9 222.2,348.8 223.2,349.3 C224.1,349.8 227.2,351.4 228.2,351.8 C229.1,352.2 232.3,353.7 233.3,354.1 C234.2,354.5 237.5,355.8 238.5,356.2 C239.4,356.6 242.7,357.8 243.7,358.1 C244.7,358.4 248.0,359.5 249.0,359.9 C250.0,360.2 253.4,361.2 254.4,361.5 C255.5,361.7 258.9,362.6 259.9,362.9 C260.9,363.1 264.4,363.9 265.5,364.2 C266.5,364.4 270.0,365.1 271.1,365.3 C272.1,365.5 275.7,366.1 276.8,366.3 C277.8,366.5 281.5,367.0 282.5,367.1 C283.6,367.3 287.3,367.7 288.4,367.8 C289.5,368.0 293.2,368.3 294.3,368.4 C295.4,368.5 299.1,368.8 300.3,368.8 C301.4,368.9 305.2,369.1 306.3,369.1 C307.4,369.1 311.3,369.2 312.4,369.2 C313.6,369.2 317.4,369.2 318.6,369.2 C319.7,369.2 323.6,369.1 324.8,369.1 C326.0,369.0 329.9,368.8 331.1,368.7 C332.3,368.7 336.3,368.4 337.5,368.3 C338.6,368.2 342.2,367.9 343.9,367.7 C345.5,367.5 352.9,366.7 355.0,366.3 C357.2,366.0 364.6,364.7 366.8,364.3 C369.0,363.8 376.3,362.1 378.4,361.5 C380.5,360.9 387.6,358.7 389.7,358.0 C391.8,357.3 398.8,354.7 400.8,353.9 C402.8,353.0 409.6,350.0 411.5,349.0 C413.5,348.0 420.0,344.5 421.9,343.4 C423.8,342.3 430.1,338.3 431.9,337.0 C433.7,335.8 439.7,331.4 441.4,330.0 C443.1,328.6 448.8,323.8 450.4,322.2 C452.0,320.7 457.3,315.5 458.8,313.8 C460.3,312.2 465.2,306.5 466.6,304.8 C468.0,303.0 472.4,297.0 473.7,295.2 C474.9,293.3 479.0,286.9 480.1,285.0 C481.2,283.0 484.8,276.4 485.7,274.3 C486.7,272.3 489.8,265.3 490.6,263.2 C491.5,261.1 494.1,253.9 494.8,251.8 C495.5,249.6 497.6,242.2 498.1,239.9 C498.7,237.7 500.3,230.1 500.7,227.8 C501.1,225.5 502.3,217.8 502.5,215.4 C502.8,213.1 503.5,205.2 503.6,202.8 C503.8,200.5 504.0,192.3 504.0,190.0 C504.0,187.7 503.8,180.0 503.8,177.8 C503.7,175.5 503.2,167.9 503.0,165.7 C502.8,163.4 502.1,156.0 501.8,153.7 C501.5,151.5 500.5,144.2 500.1,142.0 C499.7,139.8 498.3,132.5 497.9,130.4 C497.4,128.3 495.7,121.1 495.1,119.0 C494.6,116.9 492.5,109.9 491.8,107.8 C491.2,105.8 488.8,98.9 488.0,96.9 C487.2,94.9 484.4,88.2 483.5,86.2 C482.7,84.3 479.5,77.7 478.5,75.8 C477.5,73.9 473.9,67.6 472.8,65.8 C471.6,63.9 467.6,57.8 466.3,56.0 C465.1,54.3 460.6,48.4 459.2,46.7 C457.8,45.1 452.8,39.5 451.2,37.9 C449.7,36.3 444.2,31.2 442.5,29.7 C440.8,28.2 434.8,23.5 432.9,22.2 C431.1,20.9 424.6,16.6 422.6,15.5 C420.6,14.3 413.7,10.7 411.5,9.7 C409.4,8.7 402.0,5.8 399.8,5.0 C397.6,4.2 389.9,2.0 387.5,1.5 C385.2,0.9 377.3,-0.6 374.9,-0.9 C372.5,-1.2 364.0,-1.8 362.0,-2.0 C360.0,-2.1 355.1,-2.2 353.5,-2.2 C352.0,-2.2 346.6,-2.2 345.0,-2.1 C343.4,-2.1 338.0,-1.9 336.4,-1.8 C334.9,-1.7 329.5,-1.4 327.9,-1.3 C326.4,-1.1 321.1,-0.6 319.5,-0.4 C317.9,-0.2 312.6,0.6 311.1,0.8 C309.5,1.1 304.2,2.1 302.7,2.4 C301.1,2.7 295.9,3.9 294.3,4.3 C292.8,4.7 287.5,6.2 286.0,6.7 C284.4,7.2 279.3,9.0 277.7,9.6 C276.2,10.2 271.0,12.4 269.5,13.1 C267.9,13.8 262.8,16.3 261.3,17.2 C259.8,18.0 254.7,21.0 253.2,22.0 C251.8,22.9 246.8,26.5 245.4,27.6 C243.9,28.7 239.2,32.8 237.8,34.1 C236.5,35.4 232.0,40.1 230.7,41.5 C229.5,43.0 225.4,48.3 224.3,49.9 C223.1,51.5 219.6,57.3 218.6,59.1 C217.7,60.9 214.8,67.2 214.0,69.1 C213.2,71.0 211.1,77.5 210.5,79.5 C210.0,81.5 208.5,88.3 208.2,90.2 C207.9,92.2 207.3,98.6 207.1,100.7 C206.9,102.7 206.5,109.9 206.4,112.1 C206.3,114.2 205.9,121.4 205.7,123.5 C205.6,125.6 205.2,132.8 205.0,134.9 C204.9,137.1 204.5,144.2 204.3,146.4 C204.2,148.5 203.8,155.7 203.6,157.9 C203.5,160.0 203.1,167.2 202.9,169.3 C202.8,171.5 202.4,178.7 202.2,180.8 C202.1,183.0 201.7,190.2 201.6,192.3 C201.5,194.5 201.0,201.7 200.9,203.8 C200.8,206.0 200.4,213.2 200.3,215.4 C200.2,217.5 199.8,224.8 199.7,226.9 C199.6,229.1 199.2,236.3 199.1,238.4 C199.0,240.6 198.7,247.8 198.6,250.0 C198.5,252.1 198.2,259.4 198.1,261.5 C198.0,263.7 197.7,270.9 197.6,273.1 C197.6,275.2 197.3,282.5 197.2,284.6 C197.2,286.8 196.9,294.0 196.9,296.2 C196.8,298.4 196.6,305.6 196.6,307.8 C196.5,309.9 196.4,317.2 196.3,319.3 C196.3,321.5 196.2,328.7 196.1,330.9 C196.1,333.0 196.1,340.3 196.0,342.4 C196.0,344.6 196.0,352.7 196.0,354.0 C196.0,355.3 196.0,355.6 195.9,356.0 C195.9,356.4 195.8,357.6 195.7,357.9 C195.7,358.3 195.4,359.4 195.4,359.8 C195.3,360.1 195.0,361.2 194.9,361.5 C194.8,361.9 194.4,362.9 194.3,363.3 C194.2,363.6 193.8,364.6 193.6,364.9 C193.5,365.2 193.0,366.3 192.8,366.6 C192.6,366.9 192.0,367.8 191.8,368.1 C191.7,368.4 191.0,369.3 190.8,369.6 C190.6,369.9 189.9,370.8 189.6,371.0 C189.4,371.3 188.6,372.1 188.4,372.4 C188.1,372.6 187.3,373.4 187.0,373.6 C186.8,373.9 185.9,374.6 185.6,374.8 C185.3,375.0 184.4,375.7 184.1,375.8 C183.8,376.0 182.9,376.6 182.6,376.8 C182.3,377.0 181.2,377.5 180.9,377.6 C180.6,377.8 179.6,378.2 179.3,378.3 C178.9,378.4 177.9,378.8 177.5,378.9 C177.2,379.0 176.1,379.3 175.8,379.4 C175.4,379.4 174.3,379.7 173.9,379.7 C173.6,379.8 172.4,379.9 172.0,379.9 C171.6,380.0 170.4,380.0 170.0,380.0 C169.6,380.0 168.4,380.0 168.0,379.9 C167.6,379.9 166.4,379.8 166.1,379.7 C165.7,379.7 164.6,379.4 164.2,379.4 C163.9,379.3 162.8,379.0 162.5,378.9 C162.1,378.8 161.1,378.4 160.7,378.3 C160.4,378.2 159.4,377.8 159.1,377.6 C158.8,377.5 157.7,377.0 157.4,376.8 C157.1,376.6 156.2,376.0 155.9,375.8 C155.6,375.7 154.7,375.0 154.4,374.8 C154.1,374.6 153.2,373.9 153.0,373.6 C152.7,373.4 151.9,372.6 151.6,372.4 C151.4,372.1 150.6,371.3 150.4,371.0 C150.1,370.8 149.4,369.9 149.2,369.6 C149.0,369.3 148.3,368.4 148.2,368.1 C148.0,367.8 147.4,366.9 147.2,366.6 C147.0,366.3 146.5,365.2 146.4,364.9 C146.2,364.6 145.8,363.6 145.7,363.3 C145.6,362.9 145.2,361.9 145.1,361.5 C145.0,361.2 144.7,360.1 144.6,359.8 C144.6,359.4 144.3,358.3 144.3,357.9 C144.2,357.6 144.1,356.4 144.1,356.0 C144.0,355.6 144.0,354.2 144.0,354.0 Z"/>
  <path fill="url(#g)" d="M74.0,354.0 C74.0,354.7 74.2,359.8 74.3,361.1 C74.4,362.5 74.8,366.9 75.0,368.2 C75.2,369.5 76.0,373.8 76.3,375.0 C76.6,376.3 77.7,380.5 78.1,381.7 C78.4,382.9 79.8,387.0 80.3,388.2 C80.7,389.4 82.4,393.3 82.9,394.5 C83.5,395.6 85.4,399.4 86.0,400.5 C86.6,401.6 88.8,405.2 89.5,406.3 C90.2,407.3 92.6,410.8 93.3,411.8 C94.1,412.8 96.7,416.0 97.6,417.0 C98.4,417.9 101.2,421.0 102.1,421.9 C103.0,422.8 106.1,425.6 107.0,426.4 C108.0,427.3 111.2,429.9 112.2,430.7 C113.2,431.4 116.7,433.8 117.7,434.5 C118.8,435.2 122.4,437.4 123.5,438.0 C124.6,438.6 128.4,440.5 129.5,441.1 C130.7,441.6 134.6,443.3 135.8,443.7 C137.0,444.2 141.1,445.6 142.3,445.9 C143.5,446.3 147.7,447.4 149.0,447.7 C150.2,448.0 154.5,448.8 155.8,449.0 C157.1,449.2 161.5,449.6 162.9,449.7 C164.2,449.8 168.7,450.0 170.0,450.0 C171.3,450.0 175.8,449.8 177.1,449.7 C178.5,449.6 182.9,449.2 184.2,449.0 C185.5,448.8 189.8,448.0 191.0,447.7 C192.3,447.4 196.5,446.3 197.7,445.9 C198.9,445.6 203.0,444.2 204.2,443.7 C205.4,443.3 209.3,441.6 210.5,441.1 C211.6,440.5 215.4,438.6 216.5,438.0 C217.6,437.4 221.2,435.2 222.3,434.5 C223.3,433.8 226.8,431.4 227.8,430.7 C228.8,429.9 232.0,427.3 233.0,426.4 C233.9,425.6 237.0,422.8 237.9,421.9 C238.8,421.0 241.6,417.9 242.4,417.0 C243.3,416.0 245.9,412.8 246.7,411.8 C247.4,410.8 249.8,407.3 250.5,406.3 C251.2,405.2 253.4,401.6 254.0,400.5 C254.6,399.4 256.5,395.6 257.1,394.5 C257.6,393.3 259.3,389.4 259.7,388.2 C260.2,387.0 261.6,382.9 261.9,381.7 C262.3,380.5 263.4,376.3 263.7,375.0 C264.0,373.8 264.8,369.5 265.0,368.2 C265.2,366.9 265.6,362.5 265.7,361.1 C265.8,359.8 266.0,355.7 266.0,354.0 C266.0,352.3 266.0,345.0 266.0,342.9 C266.0,340.8 266.1,333.8 266.1,331.8 C266.2,329.7 266.3,322.7 266.3,320.6 C266.4,318.5 266.5,311.5 266.5,309.4 C266.6,307.3 266.8,300.3 266.8,298.2 C266.9,296.1 267.1,289.1 267.2,287.0 C267.3,284.9 267.5,277.8 267.6,275.7 C267.7,273.6 267.9,266.5 268.0,264.4 C268.1,262.3 268.4,255.2 268.5,253.1 C268.6,251.0 268.9,243.9 269.0,241.8 C269.1,239.7 269.5,232.6 269.6,230.5 C269.7,228.3 270.1,221.2 270.2,219.1 C270.3,217.0 270.7,209.9 270.8,207.7 C270.9,205.6 271.3,198.5 271.5,196.3 C271.6,194.2 272.0,187.1 272.1,184.9 C272.3,182.8 272.7,175.7 272.8,173.5 C272.9,171.4 273.4,164.2 273.5,162.1 C273.6,160.0 274.1,152.8 274.2,150.7 C274.3,148.5 274.8,141.4 274.9,139.2 C275.0,137.1 275.5,129.9 275.6,127.8 C275.7,125.6 276.2,118.4 276.3,116.3 C276.4,114.2 276.9,106.2 277.0,104.8 C277.1,103.4 277.3,101.8 277.4,101.2 C277.5,100.5 277.9,98.5 278.0,97.9 C278.2,97.3 278.8,95.5 279.0,95.0 C279.2,94.4 280.0,92.7 280.3,92.2 C280.6,91.7 281.5,90.1 281.9,89.7 C282.2,89.2 283.4,87.7 283.7,87.2 C284.1,86.8 285.5,85.3 286.0,84.9 C286.4,84.5 288.0,83.1 288.5,82.7 C289.1,82.3 290.9,81.0 291.5,80.6 C292.1,80.2 294.2,79.0 294.8,78.6 C295.5,78.2 297.8,77.1 298.6,76.7 C299.3,76.4 301.9,75.3 302.7,75.0 C303.5,74.7 306.3,73.7 307.1,73.5 C308.0,73.2 311.0,72.3 311.9,72.1 C312.8,71.9 316.0,71.1 317.0,70.9 C318.0,70.7 321.3,70.1 322.4,69.9 C323.4,69.7 326.9,69.2 328.0,69.1 C329.1,69.0 332.8,68.6 333.9,68.5 C335.0,68.4 338.9,68.1 340.0,68.1 C341.2,68.0 345.1,67.9 346.3,67.9 C347.5,67.8 351.6,67.8 352.8,67.8 C354.1,67.8 358.3,67.9 359.5,68.0 C360.7,68.1 364.5,68.4 365.6,68.5 C366.8,68.7 370.4,69.3 371.5,69.6 C372.5,69.8 376.0,70.8 377.0,71.2 C378.0,71.5 381.3,72.9 382.3,73.3 C383.2,73.7 386.4,75.4 387.3,75.9 C388.2,76.5 391.3,78.4 392.1,79.1 C393.0,79.7 395.9,82.0 396.8,82.7 C397.6,83.4 400.4,86.0 401.2,86.9 C402.0,87.7 404.6,90.6 405.4,91.5 C406.1,92.4 408.6,95.7 409.3,96.7 C410.1,97.7 412.4,101.2 413.1,102.3 C413.7,103.4 415.9,107.2 416.5,108.4 C417.1,109.6 419.1,113.7 419.7,115.0 C420.3,116.2 422.1,120.6 422.6,121.9 C423.1,123.3 424.8,127.9 425.2,129.3 C425.7,130.7 427.1,135.6 427.5,137.1 C427.9,138.6 429.1,143.6 429.5,145.2 C429.8,146.7 430.8,152.0 431.1,153.6 C431.3,155.2 432.1,160.7 432.3,162.3 C432.5,164.0 433.1,169.6 433.3,171.3 C433.4,173.0 433.7,178.8 433.8,180.6 C433.9,182.3 434.0,188.3 434.0,190.0 C434.0,191.7 433.8,197.2 433.8,198.8 C433.7,200.5 433.2,205.8 433.0,207.3 C432.8,208.9 432.1,213.9 431.8,215.4 C431.6,216.8 430.5,221.7 430.2,223.1 C429.8,224.5 428.5,229.0 428.1,230.4 C427.7,231.7 426.1,236.0 425.6,237.3 C425.1,238.5 423.3,242.6 422.7,243.8 C422.2,245.0 420.1,248.8 419.5,249.9 C418.8,251.1 416.6,254.7 415.8,255.7 C415.1,256.8 412.6,260.2 411.8,261.2 C411.1,262.1 408.3,265.3 407.5,266.2 C406.6,267.1 403.7,270.1 402.8,270.9 C401.9,271.8 398.7,274.5 397.7,275.3 C396.7,276.1 393.3,278.6 392.3,279.3 C391.3,280.0 387.6,282.3 386.5,283.0 C385.4,283.6 381.6,285.7 380.4,286.3 C379.2,286.9 375.2,288.7 374.0,289.2 C372.7,289.7 368.5,291.3 367.2,291.8 C365.9,292.2 361.4,293.6 360.0,293.9 C358.7,294.3 354.0,295.4 352.6,295.7 C351.2,296.0 346.3,296.9 344.8,297.1 C343.3,297.3 337.8,297.9 336.5,298.1 C335.3,298.2 332.6,298.5 331.7,298.5 C330.8,298.6 327.8,298.8 326.9,298.9 C326.0,298.9 323.1,299.1 322.2,299.1 C321.4,299.1 318.5,299.2 317.6,299.2 C316.8,299.2 313.9,299.2 313.1,299.2 C312.2,299.2 309.5,299.2 308.6,299.1 C307.8,299.1 305.1,299.0 304.3,298.9 C303.5,298.9 300.8,298.7 300.0,298.6 C299.2,298.6 296.6,298.3 295.8,298.2 C295.1,298.2 292.5,297.9 291.8,297.8 C291.0,297.7 288.6,297.3 287.8,297.2 C287.1,297.1 284.7,296.6 284.0,296.5 C283.3,296.4 281.0,295.9 280.3,295.8 C279.6,295.6 277.3,295.1 276.7,294.9 C276.0,294.8 273.9,294.2 273.2,294.0 C272.6,293.8 270.5,293.2 269.9,293.0 C269.3,292.8 267.3,292.2 266.7,292.0 C266.1,291.8 264.2,291.1 263.6,290.9 C263.1,290.6 261.3,289.9 260.7,289.7 C260.2,289.5 258.5,288.7 258.0,288.5 C257.5,288.2 255.9,287.4 255.4,287.2 C254.9,286.9 253.2,286.0 252.9,285.8 L239.1,310.2 C239.4,310.3 241.8,311.7 242.5,312.0 C243.1,312.4 245.4,313.5 246.1,313.8 C246.7,314.1 249.1,315.1 249.8,315.4 C250.5,315.7 252.8,316.7 253.6,317.0 C254.3,317.3 256.8,318.2 257.5,318.4 C258.2,318.7 260.8,319.5 261.5,319.8 C262.3,320.0 264.9,320.8 265.7,321.0 C266.5,321.2 269.2,321.9 270.0,322.1 C270.8,322.3 273.5,322.9 274.4,323.1 C275.2,323.3 278.0,323.9 278.8,324.0 C279.7,324.2 282.5,324.7 283.4,324.8 C284.3,325.0 287.2,325.4 288.1,325.5 C289.0,325.6 292.0,326.0 292.9,326.1 C293.8,326.2 296.8,326.5 297.7,326.5 C298.6,326.6 301.7,326.8 302.7,326.9 C303.6,326.9 306.8,327.1 307.7,327.1 C308.6,327.1 311.9,327.2 312.8,327.2 C313.8,327.2 317.0,327.2 318.0,327.2 C319.0,327.2 322.3,327.1 323.3,327.1 C324.3,327.0 327.6,326.9 328.6,326.8 C329.6,326.8 333.0,326.5 334.0,326.4 C335.0,326.4 338.1,326.1 339.5,325.9 C340.9,325.8 347.1,325.1 348.9,324.8 C350.7,324.5 356.6,323.5 358.3,323.1 C360.0,322.8 365.7,321.4 367.4,321.0 C369.1,320.5 374.6,318.8 376.2,318.3 C377.8,317.7 383.1,315.7 384.7,315.1 C386.3,314.4 391.4,312.1 392.9,311.4 C394.4,310.6 399.3,308.0 400.7,307.1 C402.1,306.3 406.8,303.3 408.1,302.4 C409.5,301.5 413.9,298.2 415.2,297.2 C416.5,296.2 420.6,292.6 421.8,291.5 C423.0,290.4 426.9,286.5 428.0,285.3 C429.1,284.1 432.7,279.9 433.7,278.6 C434.8,277.3 438.1,272.9 439.0,271.5 C439.9,270.1 442.9,265.4 443.7,264.0 C444.6,262.5 447.2,257.5 447.9,256.0 C448.7,254.5 451.0,249.2 451.6,247.7 C452.3,246.1 454.2,240.6 454.8,238.9 C455.3,237.2 456.9,231.5 457.4,229.8 C457.8,228.1 459.1,222.2 459.4,220.4 C459.7,218.6 460.6,212.4 460.8,210.6 C461.0,208.7 461.6,202.4 461.7,200.4 C461.8,198.5 462.0,192.0 462.0,190.0 C462.0,188.0 461.9,181.4 461.8,179.4 C461.7,177.5 461.3,171.0 461.2,169.1 C461.0,167.2 460.4,160.8 460.1,158.9 C459.9,157.0 459.0,150.8 458.7,149.0 C458.4,147.1 457.2,141.1 456.8,139.3 C456.4,137.5 455.0,131.6 454.5,129.9 C454.1,128.1 452.4,122.4 451.9,120.7 C451.3,119.1 449.4,113.5 448.8,111.9 C448.1,110.3 445.9,105.0 445.2,103.5 C444.6,101.9 442.1,96.9 441.3,95.4 C440.5,93.9 437.8,89.1 436.9,87.7 C436.1,86.3 433.1,81.7 432.1,80.4 C431.2,79.1 427.9,74.8 426.9,73.6 C425.9,72.4 422.3,68.4 421.2,67.3 C420.1,66.2 416.2,62.5 415.1,61.5 C413.9,60.5 409.7,57.2 408.5,56.3 C407.2,55.4 402.8,52.5 401.4,51.7 C400.1,51.0 395.4,48.5 394.0,47.9 C392.5,47.2 387.6,45.2 386.1,44.7 C384.6,44.2 379.5,42.7 377.9,42.3 C376.3,42.0 371.0,41.0 369.3,40.8 C367.7,40.5 362.0,40.1 360.5,40.0 C359.0,39.9 354.5,39.8 353.1,39.8 C351.7,39.8 347.1,39.8 345.8,39.9 C344.4,39.9 339.9,40.0 338.6,40.1 C337.3,40.2 332.8,40.5 331.5,40.6 C330.2,40.7 325.9,41.2 324.6,41.3 C323.3,41.5 319.1,42.1 317.8,42.3 C316.6,42.5 312.5,43.3 311.3,43.5 C310.1,43.8 306.0,44.7 304.9,45.0 C303.7,45.3 299.8,46.4 298.7,46.8 C297.5,47.1 293.8,48.4 292.7,48.9 C291.6,49.3 288.0,50.8 286.9,51.3 C285.9,51.7 282.4,53.5 281.4,54.0 C280.4,54.6 277.1,56.5 276.2,57.1 C275.2,57.8 272.2,60.0 271.3,60.7 C270.4,61.4 267.5,63.8 266.7,64.6 C265.9,65.4 263.3,68.1 262.5,69.0 C261.8,69.8 259.5,72.8 258.8,73.8 C258.2,74.7 256.2,78.0 255.6,79.0 C255.1,80.0 253.4,83.5 253.0,84.6 C252.6,85.7 251.3,89.4 251.0,90.5 C250.7,91.7 249.9,95.6 249.7,96.8 C249.5,98.0 249.2,101.5 249.0,103.2 C248.9,104.8 248.5,112.5 248.3,114.6 C248.2,116.7 247.8,123.9 247.6,126.1 C247.5,128.2 247.1,135.4 246.9,137.5 C246.8,139.6 246.4,146.8 246.2,149.0 C246.1,151.1 245.7,158.3 245.5,160.4 C245.4,162.5 245.0,169.7 244.9,171.8 C244.7,174.0 244.3,181.2 244.2,183.3 C244.0,185.4 243.6,192.6 243.5,194.7 C243.4,196.9 243.0,204.0 242.9,206.2 C242.7,208.3 242.4,215.5 242.2,217.6 C242.1,219.7 241.8,226.9 241.6,229.0 C241.5,231.2 241.2,238.3 241.1,240.5 C241.0,242.6 240.6,249.7 240.5,251.9 C240.5,254.0 240.1,261.1 240.1,263.3 C240.0,265.4 239.7,272.5 239.6,274.7 C239.5,276.8 239.3,283.9 239.2,286.0 C239.1,288.2 238.9,295.3 238.9,297.4 C238.8,299.5 238.6,306.6 238.6,308.8 C238.5,310.9 238.4,318.0 238.3,320.1 C238.3,322.2 238.2,329.3 238.1,331.4 C238.1,333.5 238.1,340.6 238.0,342.7 C238.0,344.8 238.0,352.5 238.0,354.0 C238.0,355.5 237.9,358.2 237.8,359.1 C237.7,360.0 237.4,363.1 237.3,364.1 C237.1,365.0 236.6,368.0 236.4,368.9 C236.2,369.8 235.4,372.8 235.1,373.6 C234.9,374.5 233.9,377.4 233.6,378.2 C233.2,379.1 232.1,381.8 231.7,382.7 C231.3,383.5 229.9,386.1 229.5,386.9 C229.1,387.7 227.5,390.3 227.1,391.0 C226.6,391.8 224.9,394.2 224.3,394.9 C223.8,395.6 221.9,397.9 221.3,398.6 C220.7,399.3 218.7,401.5 218.1,402.1 C217.5,402.7 215.3,404.7 214.6,405.3 C213.9,405.9 211.6,407.8 210.9,408.3 C210.2,408.9 207.8,410.6 207.0,411.1 C206.3,411.5 203.7,413.1 202.9,413.5 C202.1,413.9 199.5,415.3 198.7,415.7 C197.8,416.1 195.1,417.2 194.2,417.6 C193.4,417.9 190.5,418.9 189.6,419.1 C188.8,419.4 185.8,420.2 184.9,420.4 C184.0,420.6 181.0,421.1 180.1,421.3 C179.1,421.4 176.0,421.7 175.1,421.8 C174.2,421.9 171.0,422.0 170.0,422.0 C169.0,422.0 165.8,421.9 164.9,421.8 C164.0,421.7 160.9,421.4 159.9,421.3 C159.0,421.1 156.0,420.6 155.1,420.4 C154.2,420.2 151.2,419.4 150.4,419.1 C149.5,418.9 146.6,417.9 145.8,417.6 C144.9,417.2 142.2,416.1 141.3,415.7 C140.5,415.3 137.9,413.9 137.1,413.5 C136.3,413.1 133.7,411.5 133.0,411.1 C132.2,410.6 129.8,408.9 129.1,408.3 C128.4,407.8 126.1,405.9 125.4,405.3 C124.7,404.7 122.5,402.7 121.9,402.1 C121.3,401.5 119.3,399.3 118.7,398.6 C118.1,397.9 116.2,395.6 115.7,394.9 C115.1,394.2 113.4,391.8 112.9,391.0 C112.5,390.3 110.9,387.7 110.5,386.9 C110.1,386.1 108.7,383.5 108.3,382.7 C107.9,381.8 106.8,379.1 106.4,378.2 C106.1,377.4 105.1,374.5 104.9,373.6 C104.6,372.8 103.8,369.8 103.6,368.9 C103.4,368.0 102.9,365.0 102.7,364.1 C102.6,363.1 102.3,360.0 102.2,359.1 C102.1,358.2 102.0,354.5 102.0,354.0 Z"/>
  <path fill="url(#g)" d="M32.0,354.0 C32.0,355.0 32.2,362.3 32.4,364.2 C32.5,366.1 33.2,372.5 33.5,374.3 C33.8,376.2 34.9,382.4 35.3,384.2 C35.7,386.0 37.3,392.1 37.9,393.8 C38.4,395.6 40.4,401.5 41.0,403.2 C41.7,404.9 44.1,410.6 44.9,412.2 C45.6,413.9 48.4,419.3 49.3,420.9 C50.2,422.5 53.3,427.7 54.3,429.2 C55.2,430.7 58.7,435.6 59.8,437.1 C60.9,438.5 64.7,443.2 65.9,444.6 C67.0,445.9 71.2,450.3 72.4,451.6 C73.7,452.8 78.1,457.0 79.4,458.1 C80.8,459.3 85.5,463.1 86.9,464.2 C88.4,465.3 93.3,468.8 94.8,469.7 C96.3,470.7 101.5,473.8 103.1,474.7 C104.7,475.6 110.1,478.4 111.8,479.1 C113.4,479.9 119.1,482.3 120.8,483.0 C122.5,483.6 128.4,485.6 130.2,486.1 C131.9,486.7 138.0,488.3 139.8,488.7 C141.6,489.1 147.8,490.2 149.7,490.5 C151.5,490.8 157.9,491.5 159.8,491.6 C161.7,491.8 168.1,492.0 170.0,492.0 C171.9,492.0 178.3,491.8 180.2,491.6 C182.1,491.5 188.5,490.8 190.3,490.5 C192.2,490.2 198.4,489.1 200.2,488.7 C202.0,488.3 208.1,486.7 209.8,486.1 C211.6,485.6 217.5,483.6 219.2,483.0 C220.9,482.3 226.6,479.9 228.2,479.1 C229.9,478.4 235.3,475.6 236.9,474.7 C238.5,473.8 243.7,470.7 245.2,469.7 C246.7,468.8 251.6,465.3 253.1,464.2 C254.5,463.1 259.2,459.3 260.6,458.1 C261.9,457.0 266.3,452.8 267.6,451.6 C268.8,450.3 273.0,445.9 274.1,444.6 C275.3,443.2 279.1,438.5 280.2,437.1 C281.3,435.6 284.8,430.7 285.7,429.2 C286.7,427.7 289.8,422.5 290.7,420.9 C291.6,419.3 294.4,413.9 295.1,412.2 C295.9,410.6 298.3,404.9 299.0,403.2 C299.6,401.5 301.6,395.6 302.1,393.8 C302.7,392.1 304.3,386.0 304.7,384.2 C305.1,382.4 306.2,376.2 306.5,374.3 C306.8,372.5 307.5,366.1 307.6,364.2 C307.8,362.3 308.0,356.0 308.0,354.0 C308.0,352.0 308.0,345.2 308.0,343.2 C308.0,341.1 308.1,334.3 308.1,332.3 C308.2,330.3 308.3,323.4 308.3,321.4 C308.3,319.3 308.5,312.5 308.5,310.4 C308.6,308.4 308.8,301.5 308.8,299.4 C308.9,297.3 309.1,290.4 309.2,288.4 C309.2,286.3 309.5,279.4 309.6,277.3 C309.6,275.2 309.9,268.2 310.0,266.2 C310.1,264.1 310.4,257.1 310.5,255.0 C310.6,252.9 310.9,245.9 311.0,243.8 C311.1,241.7 311.4,234.7 311.6,232.6 C311.7,230.5 312.0,223.4 312.1,221.3 C312.3,219.2 312.6,212.2 312.8,210.1 C312.9,208.0 313.3,200.9 313.4,198.7 C313.5,196.6 313.9,189.5 314.1,187.4 C314.2,185.3 314.6,178.2 314.7,176.0 C314.9,173.9 315.3,166.8 315.4,164.6 C315.5,162.5 316.0,155.4 316.1,153.2 C316.2,151.1 316.7,143.9 316.8,141.8 C316.9,139.6 317.4,132.5 317.5,130.3 C317.6,128.2 318.1,121.0 318.2,118.8 C318.3,116.7 318.8,108.4 318.9,107.3 C319.0,106.3 318.9,107.6 318.8,107.7 C318.8,107.9 318.6,108.7 318.6,109.0 C318.5,109.2 318.2,110.2 318.0,110.5 C317.9,110.8 317.5,111.8 317.3,112.1 C317.2,112.4 316.6,113.3 316.4,113.5 C316.3,113.8 315.7,114.5 315.6,114.7 C315.4,114.8 314.9,115.3 314.8,115.4 C314.7,115.5 314.5,115.7 314.4,115.8 C314.4,115.8 314.4,115.8 314.5,115.8 C314.5,115.7 314.8,115.5 315.0,115.5 C315.1,115.4 315.8,115.0 316.0,114.9 C316.3,114.8 317.3,114.4 317.6,114.3 C318.0,114.1 319.3,113.7 319.8,113.5 C320.2,113.4 321.9,112.9 322.4,112.8 C323.0,112.6 325.0,112.2 325.6,112.0 C326.2,111.9 328.5,111.5 329.2,111.4 C329.9,111.2 332.4,110.9 333.1,110.8 C333.9,110.7 336.7,110.4 337.5,110.3 C338.3,110.3 341.3,110.1 342.2,110.0 C343.1,110.0 346.2,109.9 347.2,109.8 C348.1,109.8 351.4,109.8 352.4,109.8 C353.4,109.8 357.3,109.9 358.0,110.0 C358.7,110.0 359.7,110.1 360.1,110.1 C360.4,110.2 361.5,110.4 361.8,110.5 C362.1,110.5 363.0,110.8 363.3,110.9 C363.6,111.0 364.4,111.3 364.7,111.4 C365.0,111.6 365.9,112.0 366.1,112.2 C366.4,112.4 367.4,113.0 367.7,113.2 C367.9,113.4 369.0,114.2 369.3,114.5 C369.6,114.8 370.8,115.9 371.1,116.2 C371.5,116.6 372.7,117.9 373.1,118.4 C373.5,118.8 374.7,120.5 375.1,121.0 C375.5,121.6 376.8,123.6 377.2,124.2 C377.6,124.9 379.0,127.2 379.4,128.0 C379.7,128.7 381.0,131.4 381.4,132.2 C381.8,133.1 383.0,136.0 383.4,137.0 C383.8,137.9 384.9,141.2 385.2,142.2 C385.6,143.2 386.6,146.8 386.9,147.9 C387.2,149.0 388.1,152.9 388.4,154.1 C388.7,155.2 389.4,159.3 389.7,160.6 C389.9,161.9 390.5,166.2 390.7,167.5 C390.8,168.8 391.3,173.3 391.4,174.7 C391.5,176.1 391.8,180.8 391.8,182.2 C391.9,183.7 392.0,188.7 392.0,190.0 C392.0,191.3 391.9,195.3 391.8,196.5 C391.8,197.6 391.4,201.4 391.3,202.4 C391.2,203.5 390.7,206.9 390.5,207.9 C390.3,208.9 389.6,212.0 389.4,212.9 C389.2,213.8 388.4,216.7 388.1,217.5 C387.9,218.3 386.9,220.9 386.6,221.7 C386.3,222.4 385.3,224.8 385.0,225.5 C384.6,226.2 383.5,228.3 383.1,228.9 C382.8,229.5 381.5,231.5 381.1,232.1 C380.8,232.6 379.4,234.5 379.0,235.0 C378.6,235.5 377.1,237.2 376.7,237.7 C376.2,238.1 374.7,239.7 374.2,240.2 C373.7,240.6 372.0,242.1 371.5,242.5 C371.0,242.9 369.1,244.3 368.5,244.7 C368.0,245.1 365.9,246.4 365.3,246.7 C364.7,247.1 362.4,248.3 361.8,248.7 C361.1,249.0 358.6,250.1 357.9,250.4 C357.1,250.7 354.5,251.7 353.6,252.0 C352.8,252.3 349.9,253.2 349.0,253.4 C348.2,253.6 345.0,254.4 344.1,254.6 C343.1,254.8 339.8,255.4 338.7,255.5 C337.6,255.7 333.1,256.2 332.1,256.3 C331.2,256.4 329.0,256.6 328.2,256.7 C327.5,256.7 325.1,256.9 324.4,256.9 C323.7,257.0 321.4,257.1 320.7,257.1 C320.0,257.2 317.7,257.2 317.0,257.2 C316.4,257.2 314.1,257.2 313.5,257.2 C312.8,257.2 310.7,257.2 310.0,257.2 C309.4,257.1 307.3,257.0 306.7,257.0 C306.1,257.0 304.0,256.8 303.4,256.8 C302.9,256.7 300.9,256.5 300.3,256.5 C299.8,256.4 297.9,256.2 297.3,256.1 C296.8,256.0 295.0,255.8 294.5,255.7 C294.0,255.6 292.2,255.3 291.7,255.2 C291.3,255.1 289.6,254.8 289.2,254.7 C288.7,254.6 287.2,254.3 286.7,254.1 C286.3,254.0 284.9,253.7 284.5,253.6 C284.1,253.4 282.8,253.1 282.4,252.9 C282.0,252.8 280.8,252.4 280.5,252.3 C280.1,252.2 279.0,251.8 278.7,251.7 C278.4,251.6 277.5,251.2 277.2,251.0 C276.9,250.9 276.1,250.6 275.9,250.4 C275.6,250.3 274.9,250.0 274.7,249.9 C274.5,249.8 273.9,249.4 273.8,249.4 L259.9,273.7 C260.1,273.8 261.4,274.5 261.8,274.7 C262.2,274.9 263.5,275.6 263.9,275.8 C264.3,276.0 265.8,276.6 266.2,276.8 C266.7,277.0 268.2,277.6 268.7,277.8 C269.1,278.0 270.8,278.6 271.3,278.8 C271.8,278.9 273.5,279.5 274.1,279.7 C274.6,279.8 276.4,280.4 277.0,280.5 C277.5,280.7 279.5,281.2 280.0,281.3 C280.6,281.5 282.6,281.9 283.2,282.1 C283.9,282.2 285.9,282.6 286.6,282.7 C287.2,282.9 289.4,283.2 290.0,283.4 C290.7,283.5 293.0,283.8 293.6,283.9 C294.3,284.0 296.6,284.2 297.3,284.3 C298.0,284.4 300.4,284.6 301.2,284.7 C301.9,284.7 304.3,284.9 305.1,285.0 C305.8,285.0 308.3,285.1 309.1,285.1 C309.9,285.2 312.4,285.2 313.2,285.2 C314.0,285.2 316.6,285.2 317.4,285.2 C318.2,285.2 320.9,285.1 321.7,285.1 C322.5,285.1 325.3,284.9 326.1,284.9 C326.9,284.8 329.7,284.6 330.5,284.6 C331.4,284.5 333.9,284.3 335.1,284.2 C336.2,284.0 341.4,283.4 342.8,283.2 C344.1,283.0 348.5,282.3 349.7,282.0 C351.0,281.7 355.2,280.8 356.4,280.4 C357.6,280.1 361.5,278.9 362.7,278.5 C363.8,278.1 367.5,276.7 368.6,276.3 C369.7,275.8 373.2,274.2 374.2,273.7 C375.2,273.2 378.5,271.5 379.5,270.9 C380.4,270.3 383.5,268.4 384.4,267.8 C385.3,267.2 388.1,265.0 389.0,264.4 C389.8,263.7 392.5,261.4 393.2,260.7 C394.0,260.0 396.5,257.5 397.2,256.7 C397.9,255.9 400.2,253.3 400.9,252.4 C401.6,251.6 403.7,248.7 404.3,247.9 C404.9,247.0 406.8,243.9 407.4,242.9 C407.9,242.0 409.7,238.7 410.1,237.7 C410.6,236.7 412.2,233.2 412.6,232.1 C413.1,231.0 414.4,227.2 414.8,226.1 C415.2,224.9 416.3,220.9 416.6,219.7 C416.9,218.5 417.8,214.2 418.0,212.9 C418.3,211.6 419.0,207.1 419.1,205.7 C419.3,204.3 419.7,199.5 419.8,198.1 C419.9,196.6 420.0,191.6 420.0,190.0 C420.0,188.4 419.9,182.8 419.8,181.1 C419.8,179.5 419.4,174.0 419.3,172.5 C419.2,170.9 418.6,165.6 418.4,164.1 C418.3,162.5 417.5,157.4 417.3,155.9 C417.0,154.5 416.1,149.6 415.8,148.1 C415.5,146.7 414.3,142.1 414.0,140.7 C413.6,139.3 412.3,134.9 411.9,133.6 C411.5,132.3 410.0,128.2 409.5,127.0 C409.1,125.8 407.5,121.8 406.9,120.7 C406.4,119.6 404.7,116.0 404.1,114.9 C403.6,113.9 401.7,110.6 401.1,109.6 C400.5,108.7 398.5,105.7 397.9,104.8 C397.3,103.9 395.2,101.2 394.6,100.5 C394.0,99.7 391.8,97.3 391.2,96.6 C390.5,96.0 388.3,93.9 387.6,93.3 C386.9,92.7 384.7,90.9 384.0,90.4 C383.3,89.9 381.0,88.4 380.2,88.0 C379.5,87.6 377.1,86.3 376.4,86.0 C375.7,85.7 373.2,84.7 372.4,84.4 C371.7,84.2 369.0,83.4 368.2,83.2 C367.4,83.0 364.6,82.5 363.8,82.4 C362.9,82.3 360.0,82.0 359.0,82.0 C358.0,81.9 353.8,81.8 352.7,81.8 C351.5,81.8 347.7,81.8 346.6,81.9 C345.5,81.9 341.8,82.0 340.7,82.1 C339.7,82.1 336.1,82.4 335.1,82.4 C334.1,82.5 330.7,82.9 329.7,83.0 C328.8,83.1 325.6,83.6 324.6,83.7 C323.7,83.9 320.7,84.4 319.9,84.6 C319.0,84.8 316.2,85.4 315.4,85.7 C314.6,85.9 312.1,86.6 311.3,86.8 C310.6,87.1 308.3,87.9 307.7,88.1 C307.0,88.3 305.0,89.2 304.4,89.5 C303.8,89.7 302.0,90.6 301.6,90.9 C301.1,91.1 299.6,92.0 299.2,92.3 C298.7,92.6 297.5,93.5 297.2,93.7 C296.8,94.0 295.8,94.8 295.6,95.1 C295.3,95.3 294.5,96.1 294.3,96.4 C294.1,96.6 293.5,97.4 293.4,97.6 C293.2,97.9 292.8,98.6 292.6,98.8 C292.5,99.1 292.1,99.9 292.0,100.1 C291.9,100.4 291.6,101.3 291.6,101.6 C291.5,101.9 291.2,103.0 291.2,103.3 C291.1,103.7 291.0,104.4 291.0,105.7 C290.9,107.0 290.4,115.0 290.3,117.1 C290.1,119.3 289.7,126.5 289.6,128.6 C289.4,130.8 289.0,137.9 288.9,140.1 C288.7,142.2 288.3,149.4 288.2,151.5 C288.0,153.7 287.6,160.8 287.5,162.9 C287.3,165.1 286.9,172.2 286.8,174.4 C286.7,176.5 286.2,183.6 286.1,185.8 C286.0,187.9 285.6,195.0 285.4,197.1 C285.3,199.3 284.9,206.4 284.8,208.5 C284.7,210.6 284.3,217.7 284.2,219.9 C284.1,222.0 283.7,229.1 283.6,231.2 C283.5,233.3 283.1,240.4 283.0,242.5 C282.9,244.6 282.6,251.6 282.5,253.8 C282.4,255.9 282.1,262.9 282.0,265.0 C281.9,267.1 281.7,274.1 281.6,276.2 C281.5,278.3 281.3,285.3 281.2,287.4 C281.1,289.5 280.9,296.5 280.8,298.6 C280.8,300.7 280.6,307.7 280.5,309.7 C280.5,311.8 280.3,318.8 280.3,320.9 C280.3,322.9 280.2,329.9 280.1,331.9 C280.1,334.0 280.0,340.9 280.0,343.0 C280.0,345.0 280.0,352.2 280.0,354.0 C280.0,355.8 279.8,360.7 279.7,362.2 C279.6,363.7 279.0,368.7 278.8,370.2 C278.6,371.7 277.7,376.6 277.3,378.1 C277.0,379.5 275.8,384.3 275.3,385.8 C274.9,387.2 273.3,391.8 272.8,393.2 C272.3,394.6 270.4,399.1 269.8,400.4 C269.2,401.7 266.9,406.0 266.2,407.3 C265.5,408.6 263.0,412.7 262.3,413.9 C261.5,415.1 258.7,419.1 257.8,420.2 C257.0,421.4 254.0,425.1 253.0,426.2 C252.1,427.3 248.8,430.8 247.8,431.8 C246.8,432.8 243.3,436.1 242.2,437.0 C241.1,438.0 237.4,441.0 236.2,441.8 C235.1,442.7 231.1,445.5 229.9,446.3 C228.7,447.0 224.6,449.5 223.3,450.2 C222.0,450.9 217.7,453.2 216.4,453.8 C215.1,454.4 210.6,456.3 209.2,456.8 C207.8,457.3 203.2,458.9 201.8,459.3 C200.3,459.8 195.5,461.0 194.1,461.3 C192.6,461.7 187.7,462.6 186.2,462.8 C184.7,463.0 179.7,463.6 178.2,463.7 C176.7,463.8 171.5,464.0 170.0,464.0 C168.5,464.0 163.3,463.8 161.8,463.7 C160.3,463.6 155.3,463.0 153.8,462.8 C152.3,462.6 147.4,461.7 145.9,461.3 C144.5,461.0 139.7,459.8 138.2,459.3 C136.8,458.9 132.2,457.3 130.8,456.8 C129.4,456.3 124.9,454.4 123.6,453.8 C122.3,453.2 118.0,450.9 116.7,450.2 C115.4,449.5 111.3,447.0 110.1,446.3 C108.9,445.5 104.9,442.7 103.8,441.8 C102.6,441.0 98.9,438.0 97.8,437.0 C96.7,436.1 93.2,432.8 92.2,431.8 C91.2,430.8 87.9,427.3 87.0,426.2 C86.0,425.1 83.0,421.4 82.2,420.2 C81.3,419.1 78.5,415.1 77.7,413.9 C77.0,412.7 74.5,408.6 73.8,407.3 C73.1,406.0 70.8,401.7 70.2,400.4 C69.6,399.1 67.7,394.6 67.2,393.2 C66.7,391.8 65.1,387.2 64.7,385.8 C64.2,384.3 63.0,379.5 62.7,378.1 C62.3,376.6 61.4,371.7 61.2,370.2 C61.0,368.7 60.4,363.7 60.3,362.2 C60.2,360.7 60.0,354.8 60.0,354.0 Z"/>
</svg>
