<svg xmlns="http://www.w3.org/2000/svg" viewBox="0 0 512 512" width="512" height="512">
  <defs>
    <linearGradient id="g" x1="40" y1="478" x2="450" y2="64" gradientUnits="userSpaceOnUse">
      <stop offset="0%"   stop-color="#0E22CC"/>
      <stop offset="50%"  stop-color="#006CE8"/>
      <stop offset="100%" stop-color="#00C8F2"/>
    </linearGradient>
  </defs>
  <path fill="none" stroke="url(#g)" stroke-width="13" stroke-linecap="round" stroke-linejoin="round" d="M61.5,438.8 C61.7,439.3 63.8,442.9 64.4,443.8 C65.0,444.6 67.2,447.1 67.9,447.8 C68.6,448.5 71.0,450.5 71.8,451.1 C72.6,451.6 75.3,453.1 76.1,453.5 C76.9,453.9 79.7,455.0 80.5,455.2 C81.3,455.5 84.0,456.0 84.7,456.1 C85.4,456.2 87.8,456.3 88.4,456.3 C88.9,456.3 90.7,456.0 91.1,455.9 C91.5,455.8 92.4,455.5 92.6,455.4 C92.7,455.4 92.8,455.3 92.8,455.3 C92.8,455.4 92.4,455.8 92.3,455.9 C92.2,456.0 92.0,456.6 92.0,456.6 C91.9,456.6 92.0,456.1 92.0,456.0"/>
  <path fill="none" stroke="url(#g)" stroke-width="13" stroke-linecap="round" stroke-linejoin="round" d="M92.0,456.0 C92.0,453.5 92.0,434.3 92.0,429.2 C92.0,424.2 92.0,406.9 92.0,401.6 C92.0,396.4 92.0,378.7 92.0,373.4 C92.0,368.1 92.0,350.2 92.0,344.8 C92.0,339.4 92.0,321.3 92.0,315.9 C92.0,310.5 92.0,292.3 92.0,286.9 C92.0,281.6 92.0,263.5 92.0,258.1 C92.0,252.8 92.0,234.9 92.0,229.6 C92.0,224.3 92.0,206.7 92.0,201.5 C92.0,196.4 92.0,179.2 92.0,174.2 C92.0,169.1 92.0,152.5 92.0,147.7 C92.0,142.8 92.0,126.9 92.0,122.2 C92.0,117.6 92.0,100.3 92.0,98.0 C92.0,95.7 91.9,99.4 92.0,98.0 C92.1,96.6 92.8,86.1 93.2,83.5 C93.7,80.9 96.0,72.3 96.9,69.8 C97.8,67.4 101.7,59.5 103.0,57.4 C104.4,55.2 109.5,48.4 111.2,46.6 C112.9,44.7 119.0,39.1 120.9,37.6 C122.8,36.1 129.5,31.6 131.6,30.4 C133.7,29.2 140.9,25.7 143.0,24.8 C145.2,23.8 152.7,21.1 155.0,20.4 C157.3,19.7 165.1,17.7 167.4,17.1 C169.8,16.6 177.8,15.1 180.2,14.8 C182.6,14.4 190.8,13.4 193.3,13.2 C195.7,12.9 204.1,12.4 206.6,12.3 C209.0,12.2 218.7,12.0 220.0,12.0 C221.3,12.0 218.6,12.0 220.0,12.0 C221.4,12.0 232.5,12.3 235.4,12.4 C238.3,12.6 248.0,13.4 250.9,13.7 C253.8,14.1 263.6,15.5 266.5,16.0 C269.4,16.5 279.2,18.4 282.1,19.1 C285.0,19.8 294.7,22.3 297.6,23.2 C300.4,24.0 310.0,27.2 312.9,28.2 C315.7,29.3 325.2,33.1 327.9,34.3 C330.7,35.5 340.0,39.9 342.7,41.4 C345.4,42.8 354.3,47.9 357.0,49.5 C359.6,51.1 368.2,56.9 370.7,58.7 C373.3,60.6 381.5,67.1 383.9,69.1 C386.3,71.2 394.1,78.4 396.3,80.6 C398.6,82.9 406.8,92.1 407.9,93.3 C409.0,94.4 406.7,91.8 407.8,93.1 C408.8,94.5 417.2,105.0 419.2,107.8 C421.2,110.6 427.6,120.4 429.3,123.3 C431.1,126.3 436.6,136.4 438.1,139.5 C439.6,142.6 444.2,153.1 445.5,156.2 C446.8,159.4 450.6,170.1 451.7,173.3 C452.7,176.6 455.7,187.5 456.5,190.8 C457.3,194.0 459.6,205.1 460.1,208.4 C460.7,211.6 462.1,222.7 462.4,226.0 C462.8,229.3 463.4,240.4 463.5,243.6 C463.6,246.9 463.5,257.9 463.3,261.1 C463.2,264.3 462.2,275.1 461.8,278.3 C461.4,281.5 459.7,292.0 459.0,295.1 C458.4,298.2 455.3,309.8 454.9,311.5 C454.5,313.2 454.9,311.9 454.3,313.3 C453.6,314.8 449.5,324.6 448.3,327.1 C447.0,329.5 442.6,337.5 441.2,339.8 C439.8,342.1 434.7,349.5 433.1,351.6 C431.5,353.7 425.8,360.5 424.0,362.4 C422.3,364.3 416.1,370.4 414.2,372.1 C412.2,373.8 405.6,379.2 403.5,380.7 C401.5,382.2 394.4,387.0 392.2,388.3 C390.0,389.6 382.6,393.6 380.3,394.7 C378.0,395.9 370.3,399.3 367.9,400.2 C365.6,401.1 357.6,403.8 355.1,404.6 C352.7,405.3 344.5,407.4 342.0,408.0 C339.5,408.5 331.1,410.0 328.6,410.4 C326.1,410.8 316.2,411.8 315.0,411.9 C313.8,412.1 316.5,411.8 315.7,411.9 C314.8,411.9 307.4,412.6 305.5,412.7 C303.6,412.8 297.3,413.0 295.5,413.0 C293.6,413.0 287.4,413.0 285.6,412.9 C283.7,412.8 277.6,412.5 275.8,412.3 C274.0,412.2 268.0,411.6 266.2,411.4 C264.4,411.2 258.5,410.3 256.8,410.0 C255.1,409.7 249.3,408.6 247.6,408.2 C245.9,407.8 240.3,406.5 238.6,406.0 C237.0,405.6 231.5,404.0 229.9,403.5 C228.3,403.0 223.0,401.1 221.5,400.5 C219.9,400.0 214.8,397.9 213.4,397.2 C211.9,396.6 206.9,394.3 205.5,393.6 C204.1,392.8 198.7,389.9 198.0,389.5"/>
  <path fill="none" stroke="url(#g)" stroke-width="13" stroke-linecap="round" stroke-linejoin="round" d="M271.1,343.7 C272.6,344.3 284.4,349.0 287.4,350.3 C290.4,351.6 300.4,356.4 303.4,357.9 C306.4,359.4 316.3,364.6 319.3,366.2 C322.2,367.8 332.0,373.4 334.9,375.1 C337.8,376.8 347.5,382.7 350.4,384.5 C353.3,386.3 362.8,392.3 365.6,394.1 C368.4,395.9 377.8,402.0 380.6,403.8 C383.4,405.6 392.6,411.7 395.3,413.4 C398.0,415.2 407.0,421.1 409.6,422.9 C412.2,424.6 421.0,430.3 423.5,431.9 C426.1,433.5 434.6,438.9 437.0,440.4 C439.5,441.9 447.6,446.8 450.0,448.2 C452.3,449.5 461.1,454.4 462.3,455.1"/>
  <path fill="none" stroke="url(#g)" stroke-width="13" stroke-linecap="round" stroke-linejoin="round" d="M45.2,446.6 C45.6,447.3 48.8,453.0 49.8,454.3 C50.7,455.6 54.2,459.6 55.3,460.7 C56.4,461.8 60.3,465.0 61.6,465.9 C62.8,466.7 67.1,469.2 68.3,469.8 C69.6,470.4 74.1,472.1 75.4,472.5 C76.7,472.9 81.1,473.8 82.4,474.0 C83.7,474.1 87.9,474.3 89.1,474.3 C90.3,474.2 94.2,473.7 95.2,473.4 C96.3,473.2 99.5,472.0 100.4,471.6 C101.3,471.2 103.8,469.6 104.5,469.0 C105.1,468.5 106.9,466.4 107.4,465.7 C107.8,465.0 109.0,462.4 109.3,461.5 C109.5,460.6 109.9,456.5 110.0,456.0"/>
  <path fill="none" stroke="url(#g)" stroke-width="13" stroke-linecap="round" stroke-linejoin="round" d="M110.0,456.0 C110.0,453.5 110.0,434.3 110.0,429.2 C110.0,424.2 110.0,406.9 110.0,401.6 C110.0,396.4 110.0,378.7 110.0,373.4 C110.0,368.1 110.0,350.2 110.0,344.8 C110.0,339.4 110.0,321.3 110.0,315.9 C110.0,310.5 110.0,292.3 110.0,286.9 C110.0,281.6 110.0,263.5 110.0,258.1 C110.0,252.8 110.0,234.9 110.0,229.6 C110.0,224.3 110.0,206.7 110.0,201.5 C110.0,196.4 110.0,179.2 110.0,174.2 C110.0,169.1 110.0,152.5 110.0,147.7 C110.0,142.8 110.0,126.9 110.0,122.2 C110.0,117.6 110.0,100.3 110.0,98.0 C110.0,95.7 109.9,99.1 110.0,98.0 C110.1,96.9 110.6,88.6 111.0,86.6 C111.3,84.5 113.1,78.0 113.8,76.2 C114.5,74.3 117.3,68.5 118.3,66.8 C119.4,65.2 123.2,60.1 124.5,58.7 C125.8,57.3 130.5,53.0 132.0,51.8 C133.5,50.6 138.9,47.0 140.6,46.0 C142.3,45.1 148.2,42.1 150.1,41.4 C151.9,40.6 158.4,38.2 160.4,37.6 C162.4,37.0 169.2,35.2 171.3,34.7 C173.4,34.2 180.7,32.9 182.9,32.5 C185.1,32.2 192.6,31.3 194.9,31.1 C197.2,30.9 205.0,30.4 207.3,30.3 C209.7,30.2 218.8,30.0 220.0,30.0 C221.2,30.0 218.7,30.0 220.0,30.0 C221.3,30.0 231.7,30.3 234.4,30.4 C237.1,30.6 246.2,31.3 248.9,31.6 C251.6,31.9 260.8,33.2 263.5,33.7 C266.2,34.2 275.3,36.0 278.0,36.6 C280.7,37.3 289.8,39.6 292.5,40.4 C295.1,41.2 304.1,44.2 306.7,45.1 C309.3,46.1 318.1,49.6 320.7,50.8 C323.3,51.9 331.8,56.0 334.3,57.3 C336.8,58.6 345.1,63.3 347.5,64.8 C349.9,66.3 357.9,71.6 360.2,73.3 C362.5,75.0 370.0,80.9 372.2,82.8 C374.4,84.7 381.5,91.3 383.6,93.3 C385.6,95.4 393.1,103.8 394.1,104.9 C395.1,105.9 393.1,103.6 394.1,104.8 C395.1,106.1 402.7,115.7 404.6,118.3 C406.4,120.8 412.2,129.8 413.8,132.5 C415.5,135.2 420.5,144.6 421.9,147.4 C423.3,150.3 427.6,160.0 428.8,162.9 C430.0,165.8 433.5,175.8 434.5,178.8 C435.5,181.8 438.3,191.9 439.0,195.0 C439.8,198.0 441.8,208.3 442.4,211.3 C442.9,214.4 444.2,224.7 444.5,227.7 C444.8,230.8 445.4,241.0 445.5,244.1 C445.6,247.1 445.5,257.2 445.3,260.2 C445.2,263.2 444.3,273.1 444.0,276.0 C443.6,279.0 442.0,288.6 441.4,291.5 C440.8,294.3 438.0,304.9 437.7,306.3 C437.3,307.7 438.0,305.7 437.5,306.9 C436.9,308.1 433.2,316.9 432.1,319.1 C431.0,321.3 427.1,328.4 425.9,330.4 C424.6,332.4 420.2,338.9 418.7,340.7 C417.3,342.6 412.4,348.5 410.8,350.2 C409.3,351.8 403.9,357.2 402.2,358.7 C400.5,360.2 394.6,364.9 392.8,366.2 C391.0,367.5 384.8,371.7 382.9,372.9 C381.0,374.0 374.4,377.6 372.4,378.6 C370.4,379.6 363.5,382.6 361.4,383.4 C359.3,384.2 352.1,386.7 350.0,387.3 C347.8,388.0 340.4,389.9 338.2,390.4 C335.9,390.9 328.3,392.3 326.0,392.6 C323.7,392.9 314.8,393.8 313.6,394.0 C312.5,394.1 314.7,393.9 313.8,394.0 C313.0,394.0 306.2,394.6 304.5,394.7 C302.8,394.8 297.0,395.0 295.3,395.0 C293.6,395.0 287.8,395.0 286.2,394.9 C284.5,394.9 278.9,394.5 277.2,394.4 C275.5,394.3 270.0,393.7 268.4,393.5 C266.8,393.3 261.4,392.5 259.8,392.2 C258.2,392.0 253.0,391.0 251.4,390.6 C249.9,390.3 244.8,389.0 243.3,388.6 C241.8,388.2 236.9,386.8 235.4,386.3 C234.0,385.9 229.2,384.2 227.8,383.7 C226.4,383.2 221.9,381.3 220.5,380.7 C219.2,380.2 214.9,378.1 213.6,377.5 C212.3,376.8 207.6,374.3 207.0,373.9"/>
  <path fill="none" stroke="url(#g)" stroke-width="13" stroke-linecap="round" stroke-linejoin="round" d="M264.8,360.5 C266.2,361.1 277.2,365.5 280.1,366.8 C282.9,368.0 292.5,372.6 295.3,374.0 C298.2,375.4 307.8,380.4 310.6,382.0 C313.4,383.6 323.0,389.0 325.8,390.7 C328.6,392.3 338.1,398.1 340.9,399.8 C343.7,401.5 353.1,407.5 355.9,409.2 C358.7,411.0 368.0,417.1 370.7,418.9 C373.5,420.6 382.7,426.7 385.4,428.5 C388.1,430.2 397.1,436.2 399.7,437.9 C402.4,439.7 411.2,445.4 413.8,447.1 C416.4,448.7 425.0,454.2 427.6,455.7 C430.1,457.3 438.5,462.3 440.9,463.7 C443.3,465.2 452.6,470.3 453.8,470.9"/>
  <path fill="none" stroke="url(#g)" stroke-width="13" stroke-linecap="round" stroke-linejoin="round" d="M30.8,453.4 C31.3,454.4 35.5,461.9 36.8,463.6 C38.0,465.4 42.7,470.7 44.1,472.1 C45.6,473.6 50.8,477.9 52.5,479.0 C54.1,480.1 59.8,483.4 61.5,484.2 C63.2,485.1 69.1,487.3 70.9,487.8 C72.7,488.4 78.6,489.6 80.4,489.8 C82.2,490.1 88.1,490.3 89.8,490.2 C91.6,490.2 97.3,489.4 98.9,489.0 C100.5,488.6 105.9,486.8 107.4,486.0 C108.8,485.3 113.6,482.3 114.8,481.2 C116.1,480.1 119.9,475.8 120.8,474.4 C121.7,473.0 124.2,467.6 124.7,465.9 C125.2,464.1 125.9,456.9 126.0,456.0"/>
  <path fill="none" stroke="url(#g)" stroke-width="13" stroke-linecap="round" stroke-linejoin="round" d="M126.0,456.0 C126.0,453.5 126.0,434.3 126.0,429.2 C126.0,424.2 126.0,406.9 126.0,401.6 C126.0,396.4 126.0,378.7 126.0,373.4 C126.0,368.1 126.0,350.2 126.0,344.8 C126.0,339.4 126.0,321.3 126.0,315.9 C126.0,310.5 126.0,292.3 126.0,286.9 C126.0,281.6 126.0,263.5 126.0,258.1 C126.0,252.8 126.0,234.9 126.0,229.6 C126.0,224.3 126.0,206.7 126.0,201.5 C126.0,196.4 126.0,179.2 126.0,174.2 C126.0,169.1 126.0,152.5 126.0,147.7 C126.0,142.8 126.0,126.9 126.0,122.2 C126.0,117.6 126.0,100.3 126.0,98.0 C126.0,95.7 125.9,98.8 126.0,98.0 C126.1,97.2 126.5,90.8 126.7,89.3 C127.0,87.8 128.3,83.1 128.7,81.8 C129.2,80.5 131.2,76.4 132.0,75.3 C132.7,74.1 135.4,70.5 136.3,69.5 C137.2,68.5 140.7,65.3 141.8,64.4 C143.0,63.5 147.2,60.7 148.5,59.9 C149.9,59.1 154.8,56.7 156.3,56.1 C157.9,55.4 163.4,53.4 165.1,52.9 C166.8,52.3 172.9,50.7 174.8,50.3 C176.7,49.9 183.3,48.7 185.3,48.4 C187.3,48.1 194.3,47.2 196.4,47.0 C198.5,46.8 205.8,46.3 208.0,46.2 C210.2,46.2 218.9,46.0 220.0,46.0 C221.1,46.0 218.7,46.0 220.0,46.0 C221.3,46.0 231.0,46.2 233.5,46.4 C236.0,46.5 244.6,47.2 247.1,47.5 C249.7,47.8 258.2,49.0 260.8,49.5 C263.3,49.9 271.9,51.6 274.4,52.2 C276.9,52.8 285.4,55.0 287.9,55.8 C290.4,56.5 298.8,59.3 301.2,60.2 C303.7,61.1 311.8,64.3 314.2,65.4 C316.6,66.5 324.6,70.3 326.9,71.5 C329.2,72.7 336.9,77.0 339.1,78.4 C341.3,79.8 348.6,84.7 350.8,86.3 C352.9,87.8 359.8,93.3 361.8,95.0 C363.8,96.7 370.4,102.7 372.2,104.6 C374.1,106.5 381.0,114.2 381.9,115.1 C382.8,116.1 381.0,114.0 381.9,115.2 C382.8,116.3 389.8,125.2 391.5,127.5 C393.2,129.9 398.6,138.2 400.1,140.7 C401.6,143.2 406.3,151.9 407.6,154.5 C408.8,157.1 412.9,166.1 413.9,168.9 C415.0,171.6 418.4,180.9 419.3,183.7 C420.1,186.4 422.8,195.9 423.5,198.7 C424.2,201.6 426.1,211.1 426.6,214.0 C427.1,216.8 428.3,226.4 428.6,229.3 C428.9,232.1 429.5,241.7 429.5,244.5 C429.6,247.3 429.5,256.7 429.4,259.4 C429.2,262.2 428.4,271.4 428.1,274.1 C427.8,276.7 426.3,285.6 425.8,288.2 C425.2,290.8 422.6,300.5 422.3,301.7 C422.0,302.9 423.0,300.2 422.5,301.1 C422.1,302.1 418.7,310.1 417.8,312.0 C416.8,313.9 413.4,320.2 412.3,322.0 C411.2,323.7 407.2,329.4 406.0,331.1 C404.8,332.7 400.4,337.8 399.1,339.3 C397.7,340.8 393.0,345.4 391.5,346.7 C390.1,348.0 384.9,352.2 383.4,353.3 C381.8,354.5 376.3,358.1 374.6,359.2 C372.9,360.2 367.1,363.3 365.4,364.2 C363.6,365.1 357.4,367.8 355.6,368.5 C353.7,369.2 347.3,371.4 345.4,372.0 C343.4,372.6 336.7,374.3 334.7,374.8 C332.7,375.2 325.8,376.5 323.7,376.8 C321.6,377.1 313.5,377.9 312.4,378.0 C311.3,378.1 313.0,378.0 312.2,378.0 C311.4,378.1 305.2,378.6 303.6,378.7 C302.0,378.8 296.7,379.0 295.1,379.0 C293.5,379.0 288.3,379.0 286.7,378.9 C285.1,378.9 280.0,378.6 278.5,378.5 C276.9,378.3 271.9,377.8 270.4,377.6 C268.9,377.5 264.0,376.7 262.5,376.5 C261.1,376.2 256.3,375.3 254.9,375.0 C253.4,374.7 248.8,373.6 247.4,373.2 C246.1,372.8 241.6,371.5 240.3,371.1 C239.0,370.7 234.7,369.2 233.5,368.7 C232.2,368.2 228.1,366.6 226.9,366.1 C225.8,365.6 221.9,363.7 220.8,363.2 C219.7,362.6 215.5,360.4 215.0,360.1"/>
  <path fill="none" stroke="url(#g)" stroke-width="13" stroke-linecap="round" stroke-linejoin="round" d="M259.2,375.5 C260.5,376.0 270.9,380.2 273.6,381.4 C276.3,382.6 285.4,386.9 288.2,388.3 C290.9,389.7 300.1,394.5 302.9,396.0 C305.7,397.5 314.9,402.8 317.7,404.4 C320.5,406.1 329.7,411.7 332.5,413.4 C335.3,415.1 344.5,421.0 347.3,422.7 C350.0,424.5 359.3,430.5 362.0,432.2 C364.7,434.0 373.9,440.0 376.6,441.8 C379.3,443.6 388.3,449.6 391.0,451.3 C393.7,453.1 402.6,458.8 405.2,460.5 C407.8,462.2 416.6,467.7 419.2,469.3 C421.7,470.9 430.3,476.1 432.8,477.6 C435.4,479.0 445.0,484.4 446.2,485.1"/>
  <path fill="none" stroke="url(#g)" stroke-width="13" stroke-linecap="round" stroke-linejoin="round" d="M14.5,461.2 C15.2,462.4 20.6,471.9 22.2,474.1 C23.8,476.3 29.7,483.2 31.5,485.0 C33.4,486.9 40.1,492.4 42.2,493.8 C44.3,495.3 51.5,499.4 53.7,500.5 C55.9,501.5 63.5,504.4 65.8,505.1 C68.1,505.8 75.8,507.4 78.2,507.7 C80.5,508.0 88.3,508.3 90.6,508.2 C92.9,508.1 100.8,507.1 103.0,506.5 C105.3,506.0 113.0,503.3 115.2,502.2 C117.4,501.2 124.6,496.6 126.5,494.9 C128.4,493.2 134.5,486.4 135.9,484.2 C137.4,481.9 141.2,473.4 142.0,470.8 C142.7,468.1 143.8,457.4 144.0,456.0"/>
  <path fill="none" stroke="url(#g)" stroke-width="13" stroke-linecap="round" stroke-linejoin="round" d="M144.0,456.0 C144.0,453.5 144.0,434.3 144.0,429.2 C144.0,424.2 144.0,406.9 144.0,401.6 C144.0,396.4 144.0,378.7 144.0,373.4 C144.0,368.1 144.0,350.2 144.0,344.8 C144.0,339.4 144.0,321.3 144.0,315.9 C144.0,310.5 144.0,292.3 144.0,286.9 C144.0,281.6 144.0,263.5 144.0,258.1 C144.0,252.8 144.0,234.9 144.0,229.6 C144.0,224.3 144.0,206.7 144.0,201.5 C144.0,196.4 144.0,179.2 144.0,174.2 C144.0,169.1 144.0,152.5 144.0,147.7 C144.0,142.8 144.0,126.9 144.0,122.2 C144.0,117.6 144.0,100.3 144.0,98.0 C144.0,95.7 144.0,98.5 144.0,98.0 C144.0,97.5 144.3,93.3 144.5,92.4 C144.6,91.5 145.3,88.9 145.6,88.1 C145.8,87.4 146.9,85.3 147.3,84.7 C147.6,84.1 149.1,82.2 149.6,81.6 C150.1,81.1 152.2,79.1 152.9,78.6 C153.7,78.0 156.5,76.1 157.5,75.5 C158.5,75.0 162.1,73.2 163.3,72.7 C164.6,72.1 169.0,70.5 170.5,70.1 C171.9,69.6 177.1,68.2 178.7,67.9 C180.4,67.5 186.2,66.4 188.0,66.2 C189.8,65.9 196.1,65.1 198.1,64.9 C200.0,64.8 206.7,64.3 208.8,64.2 C210.8,64.1 219.0,64.0 220.0,64.0 C221.0,64.0 218.8,64.0 220.0,64.0 C221.2,64.0 230.1,64.2 232.5,64.4 C234.8,64.5 242.7,65.2 245.1,65.4 C247.4,65.7 255.4,66.8 257.7,67.2 C260.1,67.6 268.0,69.2 270.3,69.8 C272.7,70.3 280.5,72.4 282.8,73.0 C285.1,73.7 292.8,76.2 295.0,77.1 C297.3,77.9 304.8,80.9 307.0,81.9 C309.2,82.8 316.4,86.3 318.5,87.4 C320.6,88.5 327.6,92.5 329.6,93.7 C331.6,95.0 338.3,99.4 340.2,100.8 C342.1,102.2 348.3,107.1 350.1,108.7 C351.9,110.2 357.8,115.6 359.5,117.3 C361.1,119.0 367.3,125.8 368.1,126.7 C368.9,127.6 367.4,125.8 368.2,126.9 C369.0,127.9 375.3,135.8 376.9,138.0 C378.4,140.1 383.2,147.6 384.6,149.9 C386.0,152.2 390.2,160.0 391.4,162.4 C392.6,164.8 396.2,173.1 397.2,175.6 C398.2,178.1 401.3,186.6 402.1,189.1 C402.9,191.7 405.3,200.4 406.0,203.0 C406.6,205.6 408.4,214.4 408.8,217.0 C409.3,219.6 410.4,228.4 410.7,231.0 C410.9,233.6 411.5,242.3 411.5,244.9 C411.6,247.5 411.5,256.1 411.4,258.6 C411.3,261.1 410.5,269.4 410.2,271.8 C409.9,274.2 408.6,282.2 408.1,284.5 C407.7,286.8 405.3,295.6 405.1,296.5 C404.9,297.5 406.1,294.0 405.7,294.7 C405.4,295.4 402.5,302.4 401.6,304.0 C400.8,305.7 397.9,311.0 396.9,312.5 C396.0,314.0 392.7,318.8 391.7,320.2 C390.7,321.5 387.0,325.8 385.9,327.1 C384.8,328.3 380.8,332.2 379.6,333.3 C378.3,334.4 374.0,337.9 372.7,338.8 C371.4,339.8 366.8,342.9 365.3,343.7 C363.9,344.6 359.0,347.3 357.4,348.0 C355.9,348.8 350.7,351.1 349.0,351.7 C347.4,352.3 341.9,354.3 340.2,354.8 C338.5,355.3 332.6,356.8 330.9,357.2 C329.1,357.6 323.0,358.7 321.1,359.0 C319.3,359.2 312.0,360.0 311.0,360.1 C310.0,360.2 311.1,360.1 310.3,360.1 C309.6,360.2 304.0,360.7 302.6,360.8 C301.1,360.8 296.3,361.0 294.9,361.0 C293.5,361.0 288.7,361.0 287.3,360.9 C285.9,360.9 281.2,360.6 279.9,360.5 C278.5,360.4 273.9,359.9 272.6,359.8 C271.3,359.6 266.8,359.0 265.5,358.7 C264.2,358.5 259.9,357.7 258.7,357.4 C257.4,357.1 253.3,356.1 252.1,355.8 C250.9,355.5 246.9,354.3 245.8,354.0 C244.6,353.6 240.9,352.3 239.8,351.9 C238.7,351.5 235.2,350.0 234.1,349.6 C233.1,349.1 229.8,347.6 228.9,347.1 C227.9,346.6 224.4,344.7 224.0,344.5"/>
  <path fill="none" stroke="url(#g)" stroke-width="13" stroke-linecap="round" stroke-linejoin="round" d="M252.9,392.3 C254.1,392.9 263.8,396.7 266.3,397.9 C268.8,399.0 277.5,403.1 280.1,404.4 C282.7,405.7 291.6,410.4 294.2,411.8 C296.9,413.3 305.9,418.4 308.6,420.0 C311.3,421.5 320.3,427.0 323.0,428.7 C325.7,430.4 334.9,436.1 337.6,437.9 C340.3,439.6 349.4,445.5 352.1,447.3 C354.8,449.1 364.0,455.1 366.7,456.9 C369.4,458.6 378.4,464.6 381.1,466.4 C383.8,468.1 392.8,474.0 395.5,475.7 C398.1,477.4 407.1,483.0 409.7,484.6 C412.3,486.3 421.2,491.6 423.8,493.1 C426.4,494.6 436.4,500.2 437.7,500.9"/>
</svg>
